name analog
datacolumns 19
datarows 18
range 0.0 0.0085
endheader
time	ground_force_vx	ground_force_vy	ground_force_vz	ground_force_px	ground_force_py	ground_force_pz	l_ground_force_vx	l_ground_force_vy	l_ground_force_vz	l_ground_force_px	l_ground_force_py	l_ground_force_pz	ground_torque_x	ground_torque_y	ground_torque_z	l_ground_torque_x	l_ground_torque_y	l_ground_torque_z
0.0	-0.0	-0.0	-0.0	1.6564189195632937	54.45624542236328	-420.6373291015625	5.5768256187438965	-50.75866317749024	-455.1897277832031	-0.0	-0.0	-0.0	-0.0	-0.0	-0.0	100959.0	-7454.423828125	-238.24429321289065
0.0005	-0.0	-0.0	-0.0	1.4131901264190674	53.98670196533203	-421.8414306640625	5.26017951965332	-50.5701789855957	-455.4445190429688	-0.0	-0.0	-0.0	-0.0	-0.0	-0.0	101307.265625	-7188.8857421875	-432.475830078125
0.001	-0.0	-0.0	-0.0	1.185916543006897	53.39977264404297	-421.8005065917969	5.540031433105469	-50.59619140625	-454.5953979492188	-0.0	-0.0	-0.0	-0.0	-0.0	-0.0	101138.40625	-7489.61474609375	-254.94287109375
0.0015	-0.0	-0.0	-0.0	1.3505594730377195	53.3767204284668	-421.7950439453125	5.689795017242432	-50.01586151123047	-456.8891296386719	-0.0	-0.0	-0.0	-0.0	-0.0	-0.0	101258.1171875	-7739.33740234375	-237.3095550537109
0.002	-0.0	-0.0	-0.0	1.3520524501800537	52.75265884399414	-420.9408264160156	6.514015197753906	-50.16671752929688	-457.7867736816406	-0.0	-0.0	-0.0	-0.0	-0.0	-0.0	101795.234375	-7808.9833984375	-147.84478759765625
0.0025	-0.0	-0.0	-0.0	1.7076706886291504	52.44691467285156	-421.5955200195313	6.00718879699707	-50.090911865234375	-458.3865966796875	-0.0	-0.0	-0.0	-0.0	-0.0	-0.0	101753.7734375	-8044.54248046875	-160.9750213623047
0.003	-0.0	-0.0	-0.0	1.8479474782943728	52.54874420166016	-422.8572387695313	6.121044158935547	-49.96481704711914	-458.5857543945313	-0.0	-0.0	-0.0	-0.0	-0.0	-0.0	102086.421875	-7971.72509765625	-71.8977279663086
0.0035	-0.0	-0.0	-0.0	1.9373841285705569	52.07794189453125	-423.2117309570313	6.121044158935547	-49.66228485107422	-459.3341674804688	-0.0	-0.0	-0.0	-0.0	-0.0	-0.0	101843.9921875	-8029.9130859375	-114.22607421875
0.004	-0.0	-0.0	-0.0	1.5044479370117188	51.69563293457031	-424.11767578125	6.057354927062988	-49.27067184448242	-459.28656005859375	-0.0	-0.0	-0.0	-0.0	-0.0	-0.0	102020.9765625	-8232.46484375	-101.5089340209961
0.0045000000000000005	-0.0	-0.0	-0.0	1.478536605834961	51.60784149169922	-424.3716735839844	5.918805122375488	-48.967891693115234	-457.9892578125	-0.0	-0.0	-0.0	-0.0	-0.0	-0.0	101653.3828125	-8407.10546875	-38.30461120605469
0.005	-0.0	-0.0	-0.0	1.913195371627808	51.22528839111328	-423.7634582519531	6.349399089813232	-48.601444244384766	-457.886474609375	-0.0	-0.0	-0.0	-0.0	-0.0	-0.0	101406.7734375	-8200.263671875	-54.524784088134766
0.0055	-0.0	-0.0	-0.0	1.6437232494354248	51.44157028198242	-423.3653869628906	6.411672115325928	-48.71600341796875	-458.0426330566406	-0.0	-0.0	-0.0	-0.0	-0.0	-0.0	101195.4375	-8230.20703125	97.56037902832033
0.006	-0.0	-0.0	-0.0	2.0788280963897705	51.09606552124024	-423.719482421875	6.274195194244385	-48.71358108520508	-455.5901489257813	-0.0	-0.0	-0.0	-0.0	-0.0	-0.0	101261.1640625	-8365.251953125	216.8079833984375
0.006500000000000001	-0.0	-0.0	-0.0	2.1138298511505127	51.31191253662109	-423.0676879882813	6.701498031616211	-49.157745361328125	-457.38861083984375	-0.0	-0.0	-0.0	-0.0	-0.0	-0.0	101193.0859375	-8339.63671875	310.5274353027344
0.007	-0.0	-0.0	-0.0	2.412013292312622	51.69563293457031	-422.5937194824219	6.957001209259033	-49.24610900878906	-457.2942810058594	-0.0	-0.0	-0.0	-0.0	-0.0	-0.0	101368.1015625	-8482.306640625	492.1831970214844
0.0075	-0.0	-0.0	-0.0	1.986466765403748	51.28763198852539	-421.9556579589844	7.42422342300415	-49.20885848999024	-458.5442504882813	-0.0	-0.0	-0.0	-0.0	-0.0	-0.0	101572.6484375	-8728.943359375	642.0452270507812
0.008	-0.0	-0.0	-0.0	2.01421856880188	51.78049850463867	-421.17779541015625	7.806549072265625	-49.246238708496094	-459.8327026367188	-0.0	-0.0	-0.0	-0.0	-0.0	-0.0	101763.3203125	-8817.26171875	755.04052734375
0.0085	-0.0	-0.0	-0.0	2.38051176071167	51.517372131347656	-421.6039123535156	8.278061866760254	-49.09749221801758	-461.7985229492188	-0.0	-0.0	-0.0	-0.0	-0.0	-0.0	101832.78125	-9142.720703125	898.9780883789062
